<svg width="24" height="24" viewBox="0 0 22 23"
xmlns="http://www.w3.org/2000/svg">
  <path d="M9.27347 0L8.59864 5.15137L8.52539 5.71582H14.6573L14.7139 5.28125L15.4063 0H18.4639L17.7891 5.15137L17.7149 5.71582H21.669V8.74805H17.3174L17.2608 9.18262L16.6729 13.6846L16.5987 14.249H21.669V17.2813H16.2022L16.1446 17.7168L15.4522 23H12.3955L13.0703 17.8467L13.1446 17.2813H7.0127L6.95508 17.7168L6.2627 23H3.20606L3.88086 17.8467L3.9541 17.2813H0V14.249H4.35059L4.40821 13.8135L4.99707 9.3125L5.07032 8.74805H0V5.71582H5.4668L5.52442 5.28125L6.2168 0H9.27347ZM8.07129 9.18262L7.4834 13.6846L7.40918 14.249H13.541L13.5977 13.8135L14.1866 9.3125L14.2598 8.74805H8.12793L8.07129 9.18262Z"
    fill="black"/>
</svg>
