<svg width="24" height="24" viewBox="0 0 24 24" fill="none"
xmlns="http://www.w3.org/2000/svg">
  <path d="M5.17 0.03c.34-.02.67.09.88.34.22.26.33.59.31.93-.02.34-.18.65-.44.88L3.6 4.3l2.31 2.04c.27.23.44.55.46.89.03.34-.08.68-.3.93-.23.26-.54.42-.88.44-.34.02-.68-.09-.94-.32L.47 5.27C.19 5.04.03 4.68.03 4.3c0-.38.15-.74.44-.97L4.24.34c.26-.22.6-.33.93-.31Zm5.16 0c-.34-.02-.68.09-.93.34-.23.26-.34.59-.32.93.02.34.18.66.43.88l2.37 2.13-2.33 2.03c-.27.23-.43.55-.45.89-.01.34.09.68.32.93.23.26.54.42.89.44.34.02.68-.09.94-.32l3.82-2.99c.29-.24.45-.6.45-.98 0-.38-.16-.73-.44-.97L11.26.35c-.26-.23-.59-.34-.93-.32ZM1.32 11.12a1.28 1.28 0 1 0 0 2.56h21.4a1.28 1.28 0 1 0 0-2.56H1.32Zm0 5.13a1.28 1.28 0 1 0 0 2.56h19.4a1.28 1.28 0 1 0 0-2.56H1.32Zm0 5.12a1.28 1.28 0 1 0 0 2.56h16.93a1.28 1.28 0 1 0 0-2.56H1.32Z"
    fill="black"/>
</svg>