<svg height="24" width="24" viewBox="0 0 24 24" fill="black"
xmlns="http://www.w3.org/2000/svg">
  <path d="M11 1a1 1 0 1 1 2 0v2a1 1 0 1 1-2 0V1ZM18 12a6 6 0 1 1-12 0 6 6 0 0 1 12 0Zm-9.94 0A3.94 3.94 0 1 0 12 8.06 3.94 3.94 0 0 0 8.06 12Z"/>
  <path d="M20.49 3.51a1 1 0 0 0-1.42 0l-1.41 1.42a1 1 0 1 0 1.41 1.41l1.42-1.41a1 1 0 0 0 0-1.42ZM1 13a1 1 0 1 1 0-2h2a1 1 0 1 1 0 2H1ZM3.51 3.51a1 1 0 0 0 0 1.42l1.42 1.41a1 1 0 1 0 1.41-1.41L4.93 3.51a1 1 0 0 0-1.42 0ZM11 21a1 1 0 1 1 2 0v2a1 1 0 1 1-2 0v-2ZM6.34 17.66a1 1 0 0 0-1.41 0l-1.42 1.41a1 1 0 1 0 1.42 1.42l1.41-1.42a1 1 0 0 0 0-1.41ZM21 13a1 1 0 1 1 0-2h2a1 1 0 1 1 0 2h-2ZM17.66 17.66a1 1 0 0 0 0 1.41l1.41 1.42a1 1 0 1 0 1.42-1.42l-1.42-1.41a1 1 0 0 0-1.41 0Z"/>
</svg>